<svg width="1173" height="1182" viewBox="0 0 1173 1182" fill="none" xmlns="http://www.w3.org/2000/svg">
<g clip-path="url(#clip0_256_825)">
<path fill-rule="evenodd" clip-rule="evenodd" d="M586.5 0.70166C463.524 0.70166 -53.3359 1014.69 5.32249 1109.9C63.9809 1205.11 1109.03 1205.11 1167.68 1109.9C1226.34 1014.69 709.49 0.70166 586.5 0.70166Z" stroke="url(#paint0_linear_256_825)" stroke-width="2" stroke-miterlimit="10"/>
<path fill-rule="evenodd" clip-rule="evenodd" d="M586.191 23.083C466.81 23.1532 -34.3356 1007.79 22.6517 1100.18C79.6389 1192.57 1094.13 1191.95 1151.02 1099.49C1207.91 1007.03 705.572 23.0129 586.191 23.083Z" stroke="url(#paint1_linear_256_825)" stroke-width="2" stroke-miterlimit="10"/>
<path fill-rule="evenodd" clip-rule="evenodd" d="M585.882 45.4644C470.096 45.6047 -15.349 1000.89 39.9953 1090.45C95.3254 1180.02 1079.26 1178.79 1134.38 1089.08C1189.49 999.371 701.668 45.31 585.882 45.4644Z" stroke="url(#paint2_linear_256_825)" stroke-width="2" stroke-miterlimit="10"/>
<path fill-rule="evenodd" clip-rule="evenodd" d="M585.573 67.8457C473.382 68.0562 3.65139 993.983 57.3245 1080.73C110.998 1167.48 1064.38 1165.61 1117.73 1078.67C1171.06 991.71 697.764 67.6212 585.573 67.8457Z" stroke="url(#paint3_linear_256_825)" stroke-width="2" stroke-miterlimit="10"/>
<path fill-rule="evenodd" clip-rule="evenodd" d="M585.264 90.213C476.668 90.5076 22.6378 987.065 74.6538 1070.99C126.67 1154.92 1049.49 1152.43 1101.07 1068.24C1152.64 984.034 693.86 89.9183 585.264 90.213V90.213Z" stroke="url(#paint4_linear_256_825)" stroke-width="2" stroke-miterlimit="10"/>
<path fill-rule="evenodd" clip-rule="evenodd" d="M584.955 112.594C479.955 112.959 41.6383 980.175 91.9831 1061.28C142.342 1142.39 1034.6 1139.29 1084.4 1057.83C1134.2 976.373 689.942 112.23 584.941 112.594H584.955Z" stroke="url(#paint5_linear_256_825)" stroke-width="2" stroke-miterlimit="10"/>
<path fill-rule="evenodd" clip-rule="evenodd" d="M584.646 134.975C483.241 135.41 60.6247 973.271 109.326 1051.56C158.028 1129.84 1019.73 1126.12 1067.76 1047.42C1115.79 968.711 686.052 134.54 584.646 134.975V134.975Z" stroke="url(#paint6_linear_256_825)" stroke-width="2" stroke-miterlimit="10"/>
<path fill-rule="evenodd" clip-rule="evenodd" d="M584.337 157.357C486.526 157.862 79.6248 966.368 126.655 1041.83C173.7 1117.3 1004.85 1112.96 1051.1 1037.01C1097.36 961.049 682.148 156.852 584.337 157.357Z" stroke="url(#paint7_linear_256_825)" stroke-width="2" stroke-miterlimit="10"/>
<path fill-rule="evenodd" clip-rule="evenodd" d="M584.029 179.738C489.813 180.327 98.6114 959.464 143.985 1032.11C189.359 1104.75 989.961 1099.8 1034.45 1026.59C1078.94 953.388 678.23 179.149 584.014 179.738H584.029Z" stroke="url(#paint8_linear_256_825)" stroke-width="2" stroke-miterlimit="10"/>
<path fill-rule="evenodd" clip-rule="evenodd" d="M583.719 202.12C493.099 202.779 117.598 952.56 161.328 1022.38C205.045 1092.21 975.089 1086.64 1017.81 1016.18C1060.53 945.726 674.34 201.46 583.719 202.12V202.12Z" stroke="url(#paint9_linear_256_825)" stroke-width="2" stroke-miterlimit="10"/>
<path fill-rule="evenodd" clip-rule="evenodd" d="M583.411 224.501C496.385 225.23 136.598 945.656 178.658 1012.66C220.717 1079.66 960.204 1073.48 1001.15 1005.77C1042.1 938.065 670.436 223.771 583.411 224.501V224.501Z" stroke="url(#paint10_linear_256_825)" stroke-width="2" stroke-miterlimit="10"/>
<path fill-rule="evenodd" clip-rule="evenodd" d="M583.101 246.882C499.671 247.682 155.584 938.752 195.987 1002.94C236.389 1067.12 945.317 1060.31 984.498 995.358C1023.68 930.403 666.532 246.082 583.101 246.882V246.882Z" stroke="url(#paint11_linear_256_825)" stroke-width="2" stroke-miterlimit="10"/>
<path fill-rule="evenodd" clip-rule="evenodd" d="M582.792 269.249C502.957 270.119 174.585 931.834 213.33 993.197C252.075 1054.56 930.446 1047.12 967.857 984.932C1005.25 922.728 662.628 268.365 582.806 269.249H582.792Z" stroke="url(#paint12_linear_256_825)" stroke-width="2" stroke-miterlimit="10"/>
<path fill-rule="evenodd" clip-rule="evenodd" d="M582.484 291.63C506.243 292.585 193.571 924.93 230.66 983.487C267.748 1042.03 915.56 1033.97 951.202 974.534C986.843 915.094 658.724 290.69 582.484 291.63Z" stroke="url(#paint13_linear_256_825)" stroke-width="2" stroke-miterlimit="10"/>
<path fill-rule="evenodd" clip-rule="evenodd" d="M582.175 314.012C509.529 315.036 212.572 918.027 247.989 973.762C283.406 1029.48 900.674 1020.81 934.532 964.122C968.391 907.418 654.806 313.001 582.161 314.026L582.175 314.012Z" stroke="url(#paint14_linear_256_825)" stroke-width="2" stroke-miterlimit="10"/>
<path fill-rule="evenodd" clip-rule="evenodd" d="M581.866 336.393C512.815 337.488 231.558 911.137 265.318 964.038C299.078 1016.94 885.789 1007.65 917.877 953.697C949.966 899.743 650.902 335.299 581.852 336.393H581.866Z" stroke="url(#paint15_linear_256_825)" stroke-width="2" stroke-miterlimit="10"/>
<path fill-rule="evenodd" clip-rule="evenodd" d="M581.557 358.774C516.101 359.939 250.558 904.233 282.661 954.314C314.764 1004.39 870.917 994.488 901.236 943.284C931.555 892.081 646.998 357.596 581.557 358.774Z" stroke="url(#paint16_linear_256_825)" stroke-width="2" stroke-miterlimit="10"/>
<path fill-rule="evenodd" clip-rule="evenodd" d="M581.248 381.156C519.401 382.391 269.545 897.33 299.991 944.59C330.436 991.85 856.031 981.326 884.581 932.873C913.131 884.42 643.094 379.907 581.248 381.156V381.156Z" stroke="url(#paint17_linear_256_825)" stroke-width="2" stroke-miterlimit="10"/>
<path fill-rule="evenodd" clip-rule="evenodd" d="M580.939 403.537C522.688 404.856 288.546 890.426 317.32 934.866C346.109 979.32 841.145 968.164 867.926 922.461C894.706 876.758 639.19 402.218 580.939 403.537V403.537Z" stroke="url(#paint18_linear_256_825)" stroke-width="2" stroke-miterlimit="10"/>
<path fill-rule="evenodd" clip-rule="evenodd" d="M580.63 425.905C525.974 427.294 307.532 883.508 334.663 925.127C361.795 966.761 826.273 954.988 851.284 912.035C876.295 869.083 635.3 424.515 580.63 425.905V425.905Z" stroke="url(#paint19_linear_256_825)" stroke-width="2" stroke-miterlimit="10"/>
<path fill-rule="evenodd" clip-rule="evenodd" d="M580.321 448.286C529.26 449.745 326.518 876.604 351.993 915.417C377.467 954.23 811.388 941.84 834.629 901.637C857.871 861.435 631.382 446.841 580.321 448.286V448.286Z" stroke="url(#paint20_linear_256_825)" stroke-width="2" stroke-miterlimit="10"/>
<path fill-rule="evenodd" clip-rule="evenodd" d="M580.012 470.667C532.546 472.197 345.519 869.7 369.322 905.693C393.125 941.685 796.502 928.677 817.974 891.225C839.446 853.774 627.478 469.138 580.012 470.667V470.667Z" stroke="url(#paint21_linear_256_825)" stroke-width="2" stroke-miterlimit="10"/>
<path fill-rule="evenodd" clip-rule="evenodd" d="M579.704 493.048C535.833 494.648 364.506 862.796 386.666 895.968C408.812 929.14 781.631 915.501 801.333 880.813C821.036 846.112 623.589 491.449 579.718 493.048H579.704Z" stroke="url(#paint22_linear_256_825)" stroke-width="2" stroke-miterlimit="10"/>
<path fill-rule="evenodd" clip-rule="evenodd" d="M579.394 515.43C539.118 517.1 383.505 855.892 403.994 886.244C424.483 916.596 766.744 902.339 784.677 870.402C802.611 838.45 619.684 513.76 579.408 515.43H579.394Z" stroke="url(#paint23_linear_256_825)" stroke-width="2" stroke-miterlimit="10"/>
<path fill-rule="evenodd" clip-rule="evenodd" d="M579.085 537.811C542.404 539.565 402.492 848.988 421.324 876.52C440.156 904.051 751.859 889.177 768.008 859.99C784.158 830.803 615.752 536.071 579.071 537.811H579.085Z" stroke="url(#paint24_linear_256_825)" stroke-width="2" stroke-miterlimit="10"/>
<path fill-rule="evenodd" clip-rule="evenodd" d="M578.776 560.192C545.69 562.017 421.492 842.085 438.653 866.795C455.828 891.506 736.973 876.014 751.353 849.564C765.733 823.113 611.848 558.354 578.762 560.178L578.776 560.192Z" stroke="url(#paint25_linear_256_825)" stroke-width="2" stroke-miterlimit="10"/>
<path fill-rule="evenodd" clip-rule="evenodd" d="M578.467 582.574C548.977 584.468 440.479 835.195 455.997 857.071C471.514 878.961 722.101 862.852 734.712 839.152C747.323 815.452 607.958 580.665 578.467 582.56V582.574Z" stroke="url(#paint26_linear_256_825)" stroke-width="2" stroke-miterlimit="10"/>
<path fill-rule="evenodd" clip-rule="evenodd" d="M578.159 604.941C552.263 606.905 459.479 828.277 473.326 847.347C487.187 866.416 707.215 849.69 718.057 828.74C728.898 807.79 604.054 602.976 578.159 604.941V604.941Z" stroke="url(#paint27_linear_256_825)" stroke-width="2" stroke-miterlimit="10"/>
<path fill-rule="evenodd" clip-rule="evenodd" d="M577.849 627.323C555.548 629.357 478.465 821.374 490.655 837.623C502.844 853.872 692.329 836.528 701.401 818.329C710.473 800.129 600.136 625.288 577.849 627.323V627.323Z" stroke="url(#paint28_linear_256_825)" stroke-width="2" stroke-miterlimit="10"/>
<path fill-rule="evenodd" clip-rule="evenodd" d="M577.54 649.703C558.835 651.822 497.452 814.469 507.998 827.898C518.531 841.327 677.458 823.365 684.76 807.916C692.063 792.467 596.246 647.584 577.54 649.703Z" stroke="url(#paint29_linear_256_825)" stroke-width="2" stroke-miterlimit="10"/>
<path fill-rule="evenodd" clip-rule="evenodd" d="M577.232 672.084C562.121 674.273 516.453 807.565 525.328 818.173C534.203 828.781 662.572 810.203 668.105 797.504C673.638 784.805 592.342 669.895 577.232 672.084V672.084Z" stroke="url(#paint30_linear_256_825)" stroke-width="2" stroke-miterlimit="10"/>
<path fill-rule="evenodd" clip-rule="evenodd" d="M576.922 694.467C565.407 696.726 535.439 800.663 542.657 808.45C549.875 816.238 647.686 797.028 651.45 787.093C655.213 777.159 588.438 692.208 576.922 694.467V694.467Z" stroke="url(#paint31_linear_256_825)" stroke-width="2" stroke-miterlimit="10"/>
<path fill-rule="evenodd" clip-rule="evenodd" d="M576.613 716.847C568.693 719.177 554.439 793.758 560 798.725C565.561 803.692 632.814 783.865 634.808 776.681C636.803 769.496 584.534 714.518 576.627 716.847H576.613Z" stroke="url(#paint32_linear_256_825)" stroke-width="2" stroke-miterlimit="10"/>
<path fill-rule="evenodd" clip-rule="evenodd" d="M576.305 739.228C571.979 741.628 573.426 786.853 577.33 789C581.234 791.147 617.929 770.702 618.139 766.268C618.35 761.834 580.616 736.829 576.305 739.228Z" stroke="url(#paint33_linear_256_825)" stroke-width="2" stroke-miterlimit="10"/>
</g>
<defs>
<linearGradient id="paint0_linear_256_825" x1="586.5" y1="0.70166" x2="586.5" y2="1181.31" gradientUnits="userSpaceOnUse">
<stop stop-color="white" stop-opacity="0.43"/>
<stop offset="1" stop-color="white"/>
</linearGradient>
<linearGradient id="paint1_linear_256_825" x1="586.825" y1="23.083" x2="586.825" y2="1169.15" gradientUnits="userSpaceOnUse">
<stop stop-color="white" stop-opacity="0.43"/>
<stop offset="1" stop-color="white"/>
</linearGradient>
<linearGradient id="paint2_linear_256_825" x1="587.16" y1="45.4644" x2="587.16" y2="1157" gradientUnits="userSpaceOnUse">
<stop stop-color="white" stop-opacity="0.43"/>
<stop offset="1" stop-color="white"/>
</linearGradient>
<linearGradient id="paint3_linear_256_825" x1="587.485" y1="67.8457" x2="587.485" y2="1144.84" gradientUnits="userSpaceOnUse">
<stop stop-color="white" stop-opacity="0.43"/>
<stop offset="1" stop-color="white"/>
</linearGradient>
<linearGradient id="paint4_linear_256_825" x1="587.809" y1="90.2129" x2="587.809" y2="1132.68" gradientUnits="userSpaceOnUse">
<stop stop-color="white" stop-opacity="0.43"/>
<stop offset="1" stop-color="white"/>
</linearGradient>
<linearGradient id="paint5_linear_256_825" x1="588.126" y1="112.594" x2="588.126" y2="1120.54" gradientUnits="userSpaceOnUse">
<stop stop-color="white" stop-opacity="0.43"/>
<stop offset="1" stop-color="white"/>
</linearGradient>
<linearGradient id="paint6_linear_256_825" x1="588.463" y1="134.975" x2="588.463" y2="1108.4" gradientUnits="userSpaceOnUse">
<stop stop-color="white" stop-opacity="0.43"/>
<stop offset="1" stop-color="white"/>
</linearGradient>
<linearGradient id="paint7_linear_256_825" x1="588.787" y1="157.356" x2="588.787" y2="1096.25" gradientUnits="userSpaceOnUse">
<stop stop-color="white" stop-opacity="0.43"/>
<stop offset="1" stop-color="white"/>
</linearGradient>
<linearGradient id="paint8_linear_256_825" x1="589.111" y1="179.738" x2="589.111" y2="1084.12" gradientUnits="userSpaceOnUse">
<stop stop-color="white" stop-opacity="0.43"/>
<stop offset="1" stop-color="white"/>
</linearGradient>
<linearGradient id="paint9_linear_256_825" x1="589.448" y1="202.119" x2="589.448" y2="1071.98" gradientUnits="userSpaceOnUse">
<stop stop-color="white" stop-opacity="0.43"/>
<stop offset="1" stop-color="white"/>
</linearGradient>
<linearGradient id="paint10_linear_256_825" x1="589.773" y1="224.5" x2="589.773" y2="1059.85" gradientUnits="userSpaceOnUse">
<stop stop-color="white" stop-opacity="0.43"/>
<stop offset="1" stop-color="white"/>
</linearGradient>
<linearGradient id="paint11_linear_256_825" x1="590.096" y1="246.881" x2="590.096" y2="1047.72" gradientUnits="userSpaceOnUse">
<stop stop-color="white" stop-opacity="0.43"/>
<stop offset="1" stop-color="white"/>
</linearGradient>
<linearGradient id="paint12_linear_256_825" x1="590.432" y1="269.249" x2="590.432" y2="1035.58" gradientUnits="userSpaceOnUse">
<stop stop-color="white" stop-opacity="0.43"/>
<stop offset="1" stop-color="white"/>
</linearGradient>
<linearGradient id="paint13_linear_256_825" x1="590.757" y1="291.629" x2="590.757" y2="1023.48" gradientUnits="userSpaceOnUse">
<stop stop-color="white" stop-opacity="0.43"/>
<stop offset="1" stop-color="white"/>
</linearGradient>
<linearGradient id="paint14_linear_256_825" x1="591.074" y1="314.012" x2="591.074" y2="1011.38" gradientUnits="userSpaceOnUse">
<stop stop-color="white" stop-opacity="0.43"/>
<stop offset="1" stop-color="white"/>
</linearGradient>
<linearGradient id="paint15_linear_256_825" x1="591.398" y1="336.392" x2="591.398" y2="999.274" gradientUnits="userSpaceOnUse">
<stop stop-color="white" stop-opacity="0.43"/>
<stop offset="1" stop-color="white"/>
</linearGradient>
<linearGradient id="paint16_linear_256_825" x1="591.735" y1="358.772" x2="591.735" y2="987.184" gradientUnits="userSpaceOnUse">
<stop stop-color="white" stop-opacity="0.43"/>
<stop offset="1" stop-color="white"/>
</linearGradient>
<linearGradient id="paint17_linear_256_825" x1="592.058" y1="381.154" x2="592.058" y2="975.105" gradientUnits="userSpaceOnUse">
<stop stop-color="white" stop-opacity="0.43"/>
<stop offset="1" stop-color="white"/>
</linearGradient>
<linearGradient id="paint18_linear_256_825" x1="592.383" y1="403.535" x2="592.383" y2="963.044" gradientUnits="userSpaceOnUse">
<stop stop-color="white" stop-opacity="0.43"/>
<stop offset="1" stop-color="white"/>
</linearGradient>
<linearGradient id="paint19_linear_256_825" x1="592.719" y1="425.901" x2="592.719" y2="950.978" gradientUnits="userSpaceOnUse">
<stop stop-color="white" stop-opacity="0.43"/>
<stop offset="1" stop-color="white"/>
</linearGradient>
<linearGradient id="paint20_linear_256_825" x1="593.043" y1="448.282" x2="593.043" y2="938.958" gradientUnits="userSpaceOnUse">
<stop stop-color="white" stop-opacity="0.43"/>
<stop offset="1" stop-color="white"/>
</linearGradient>
<linearGradient id="paint21_linear_256_825" x1="593.367" y1="470.663" x2="593.367" y2="926.945" gradientUnits="userSpaceOnUse">
<stop stop-color="white" stop-opacity="0.43"/>
<stop offset="1" stop-color="white"/>
</linearGradient>
<linearGradient id="paint22_linear_256_825" x1="593.704" y1="493.043" x2="593.704" y2="914.955" gradientUnits="userSpaceOnUse">
<stop stop-color="white" stop-opacity="0.43"/>
<stop offset="1" stop-color="white"/>
</linearGradient>
<linearGradient id="paint23_linear_256_825" x1="594.028" y1="515.423" x2="594.028" y2="903.001" gradientUnits="userSpaceOnUse">
<stop stop-color="white" stop-opacity="0.43"/>
<stop offset="1" stop-color="white"/>
</linearGradient>
<linearGradient id="paint24_linear_256_825" x1="594.343" y1="537.803" x2="594.343" y2="891.086" gradientUnits="userSpaceOnUse">
<stop stop-color="white" stop-opacity="0.43"/>
<stop offset="1" stop-color="white"/>
</linearGradient>
<linearGradient id="paint25_linear_256_825" x1="594.666" y1="560.169" x2="594.666" y2="879.222" gradientUnits="userSpaceOnUse">
<stop stop-color="white" stop-opacity="0.43"/>
<stop offset="1" stop-color="white"/>
</linearGradient>
<linearGradient id="paint26_linear_256_825" x1="595.001" y1="582.548" x2="595.001" y2="867.421" gradientUnits="userSpaceOnUse">
<stop stop-color="white" stop-opacity="0.43"/>
<stop offset="1" stop-color="white"/>
</linearGradient>
<linearGradient id="paint27_linear_256_825" x1="595.324" y1="604.927" x2="595.324" y2="855.702" gradientUnits="userSpaceOnUse">
<stop stop-color="white" stop-opacity="0.43"/>
<stop offset="1" stop-color="white"/>
</linearGradient>
<linearGradient id="paint28_linear_256_825" x1="595.643" y1="627.305" x2="595.643" y2="844.09" gradientUnits="userSpaceOnUse">
<stop stop-color="white" stop-opacity="0.43"/>
<stop offset="1" stop-color="white"/>
</linearGradient>
<linearGradient id="paint29_linear_256_825" x1="595.973" y1="649.68" x2="595.973" y2="832.614" gradientUnits="userSpaceOnUse">
<stop stop-color="white" stop-opacity="0.43"/>
<stop offset="1" stop-color="white"/>
</linearGradient>
<linearGradient id="paint30_linear_256_825" x1="596.284" y1="672.053" x2="596.284" y2="821.32" gradientUnits="userSpaceOnUse">
<stop stop-color="white" stop-opacity="0.43"/>
<stop offset="1" stop-color="white"/>
</linearGradient>
<linearGradient id="paint31_linear_256_825" x1="596.576" y1="694.423" x2="596.576" y2="810.264" gradientUnits="userSpaceOnUse">
<stop stop-color="white" stop-opacity="0.43"/>
<stop offset="1" stop-color="white"/>
</linearGradient>
<linearGradient id="paint32_linear_256_825" x1="596.805" y1="716.775" x2="596.805" y2="799.514" gradientUnits="userSpaceOnUse">
<stop stop-color="white" stop-opacity="0.43"/>
<stop offset="1" stop-color="white"/>
</linearGradient>
<linearGradient id="paint33_linear_256_825" x1="595.902" y1="739.066" x2="595.902" y2="789.158" gradientUnits="userSpaceOnUse">
<stop stop-color="white" stop-opacity="0.43"/>
<stop offset="1" stop-color="white"/>
</linearGradient>
<clipPath id="clip0_256_825">
<rect width="1173" height="1182" fill="white"/>
</clipPath>
</defs>
</svg>
